<?xml version="1.0" encoding="UTF-8"?>
<svg width="124px" height="30px" viewBox="0 0 124 30" version="1.1" xmlns="http://www.w3.org/2000/svg" xmlns:xlink="http://www.w3.org/1999/xlink">
    <!-- Generator: Sketch 46.2 (44496) - http://www.bohemiancoding.com/sketch -->
    <title>logo-uxactly-monochrome</title>
    <desc>Created with Sketch.</desc>
    <defs></defs>
    <g id="Page-1" stroke="none" stroke-width="1" fill="none" fill-rule="evenodd">
        <g id="Groessen-u-farben" transform="translate(-1112.000000, -46.000000)" fill-rule="nonzero" fill="#FFFFFF">
            <g id="logo-uxactly-monochrome" transform="translate(1112.000000, 46.000000)">
                <path d="M70.2686716,8.2141654 C68.875569,8.16388217 67.530096,8.72508606 66.585624,9.75038395 C65.6170365,10.8436294 65.1098315,12.2697093 65.1705583,13.7290446 C65.1017415,15.2100436 65.6088594,16.6601924 66.585624,17.7755509 C67.5297131,18.8013954 68.8754499,19.3627093 70.2686716,19.3117694 C72.5011154,19.3117694 74.1762559,18.5783906 75.2940931,17.1116331 L78.1193783,19.4474606 C77.2833625,20.657049 76.1388517,21.6208476 74.8046355,22.238823 C73.3040695,22.9141329 71.671466,23.2452898 70.0263658,23.2080461 C68.3168386,23.2394257 66.627976,22.8305608 65.1220972,22.0207478 C63.7152768,21.2520228 62.5594939,20.0945575 61.792816,18.6866205 C60.980003,17.1696558 60.5711322,15.4690873 60.6055177,13.7484291 C60.5690213,12.0087991 60.9830375,10.2892965 61.8073543,8.75693031 C62.5814315,7.34423491 63.7433246,6.18234186 65.15602,5.40826465 C66.6759331,4.60010032 68.3780913,4.19625495 70.0990575,4.23550476 C71.6633347,4.20888281 73.2156164,4.5127337 74.6544059,5.12718997 C75.9385915,5.68000788 77.0609611,6.5505531 77.9158415,7.65686215 L75.1584019,10.2737644 C73.9111589,8.90088865 72.1223021,8.14740589 70.2686716,8.2141654 Z M92.9145683,21.8947488 C91.5137028,22.7769513 89.8935564,23.2487245 88.238067,23.2565072 C86.7993666,23.3063718 85.3968492,22.7995215 84.3224059,21.8414416 C83.2982602,20.8980645 82.7861874,19.5088448 82.7861874,17.6737824 L82.7861874,7.67624661 L80.1692851,7.67624661 L80.1353623,4.36150375 L82.7861874,4.36150375 L82.7861874,0 L87.2882285,0 L87.2882285,4.36150375 L92.6189553,4.36150375 L92.6189553,7.67624661 L87.2882285,7.67624661 L87.2882285,16.8838656 C87.2252994,17.5327982 87.3972509,18.1827747 87.77284,18.7156972 C88.1563601,19.098034 88.6864288,19.2959263 89.2266746,19.2584621 C90.1549301,19.1960688 91.0589421,18.9349465 91.8774996,18.4927759 L92.9145683,21.8947488 Z M96.6509232,0.00969223056 L101.186887,0.00969223056 L101.186887,23.0432782 L96.6509232,23.0432782 L96.6509232,0.00969223056 Z M118.807362,4.3760421 L123.40148,4.35665764 L115.027392,25.3597213 C114.559057,26.738789 113.690116,27.9468701 112.531643,28.8295398 C111.399119,29.6267646 110.039185,30.0364449 108.654751,29.9974536 L108.349445,29.9974536 L111.654496,22.7282807 L103.949173,4.3760421 L108.659597,4.3760421 L113.961247,17.9451649 L118.807362,4.3760421 Z M46.7843969,23.0432782 C45.4807919,23.0432782 44.9671037,23.0045092 43.9784962,22.5053594 C43.0274856,22.0477733 42.2283483,21.3260262 41.6765914,20.4263759 C41.1377129,19.5318741 40.8591148,18.5047536 40.8721363,17.4605534 C40.7987962,15.8766811 41.4867397,14.3531204 42.7233523,13.3607398 C43.9639578,12.3721323 45.7150208,11.866521 47.9765413,11.8439057 L53.4187287,11.8439057 L53.4187287,11.3592942 C53.4727257,10.3880948 53.0736157,9.44669634 52.338045,8.81023758 C51.6175892,8.20608854 50.5708283,7.90401402 49.1977623,7.90401402 C47.2232698,7.96627202 45.3038257,8.56976536 43.6489603,9.64861553 L42.0109734,6.50833282 C43.2751389,5.77288458 44.6136786,5.17346574 46.0041724,4.72011628 C47.3725774,4.33617663 48.7895566,4.1533406 50.2106004,4.17735137 C52.6304273,4.17735137 54.5091047,4.75888521 55.8466325,5.92195287 C57.1841603,7.08502054 57.8642318,8.71331528 57.886847,10.8068371 L57.9207698,23.0190476 L46.7747047,23.0190476 L46.7843969,23.0432782 Z M51.8534335,18.8416962 C52.6955115,18.3556162 53.2726505,17.5148458 53.4235749,16.5543298 L53.4235749,14.8969584 L48.7131508,14.8969584 C47.7905469,14.8263704 46.8660661,15.0072471 46.0380952,15.4203388 C45.4572615,15.8099176 45.1313207,16.4821705 45.1851789,17.1794787 C45.1587591,17.9153513 45.491235,18.6182487 46.0768641,19.0646175 C46.7825752,19.5641743 47.6366072,19.8101355 48.4999217,19.7624581 C49.6846812,19.7977725 50.8528149,19.4770422 51.8534335,18.8416962 Z M26.2659448,15.3718777 L28.7762325,19.1421554 L26.0817924,23.0578165 L21.0224481,23.0578165 L26.2659448,15.3718777 Z M34.8871839,15.4058005 L39.9659127,23.0578165 L34.7321082,23.0578165 L32.3478195,19.3069233 L34.8871839,15.4058005 Z M24.002809,8.1802426 L21.4731368,4.38573433 L26.7069413,4.38573433 L30.5838335,10.4579168 L34.5576481,4.38573433 L39.5491468,4.38573433 L36.2731729,9.41600199 L31.1023679,17.3539388 L30.6129102,18.1002406 L30.0652992,17.276401 L27.5453193,13.4964311 L24.6521884,9.15431177 L24.002809,8.1802426 Z M6.38233383,23.0432782 C4.28881202,23.0432782 3.02397594,22.5586666 1.81729323,21.2986767 C0.610610525,20.0386867 0,18.2892391 0,16.0648722 L0,4.3760421 L4.56988671,4.3760421 L4.56988671,14.7418827 C4.50807837,15.8633608 4.89119295,16.9639445 5.63603207,17.8046275 C6.41616238,18.5764291 7.48683811,18.9814545 8.58247016,18.9192341 C9.89724115,18.9543191 11.1564677,18.3889156 12.0038276,17.3830155 C12.8668204,16.3075536 13.3125232,14.9566783 13.2589714,13.578815 L13.2589714,4.37119598 L17.8288581,4.37119598 L17.8288581,23.0432782 L6.38233383,23.0432782 Z" id="Combined-Shape"></path>
            </g>
        </g>
    </g>
</svg>